<svg xmlns="http://www.w3.org/2000/svg" width="512" height="512" viewBox="0 0 512 512" role="img" aria-label="Evento">
  <rect width="512" height="512" rx="96" fill="#111827" />
  <circle cx="256" cy="256" r="144" fill="#f59e0b" />
  <path d="M188 310V202h38c18 0 33 5 44 16 12 10 18 24 18 41 0 18-6 32-18 42-11 10-26 15-44 15h-12v-26h10c10 0 18-3 24-9 6-6 9-13 9-22 0-9-3-16-9-22-6-6-14-9-24-9h-14v83h-22z" fill="#111827" />
  <path d="M298 202h26l29 108h-24l-6-26h-32l-6 26h-24l29-108zm5 61h18l-9-40-9 40z" fill="#111827" />
</svg>
